# xmcd CD database file
#
# Track frame offsets:
#	150
#	36264
#	60505
#	82602
#	104252
#	137339
#	158116
#	167457
#	194758
#	219928
#
# Disc length: 3344 seconds
#
# Revision: 0
# Processed by: cddbd v1.5.1PL0 Copyright (c) Steve Scherf et al.
# Submitted via: CDex 1.51
#
DISCID=760d0e0a
DTITLE=Alexandre Furnelle Quartet - Le chant des sirènes
DYEAR=2005
DGENRE=Jazz
TTITLE0=Le chant des sirenes
TTITLE1=Le domaine du reve 
TTITLE2=Balimotou
TTITLE3=Ice cream
TTITLE4=Sale affaire !
TTITLE5=Coumaya
TTITLE6=La luna
TTITLE7=Valse
TTITLE8=Saut dans le temps
TTITLE9=Jardins suspendus
EXTD=YEAR: 2005
EXTT0=
EXTT1=
EXTT2=
EXTT3=
EXTT4=
EXTT5=
EXTT6=
EXTT7=
EXTT8=
EXTT9=
PLAYORDER=
